<?xml version="1.0" encoding="UTF-8"?>
<svg width="512" height="512" viewBox="0 0 512 512" xmlns="http://www.w3.org/2000/svg">
    <rect width="512" height="512" fill="#1a1a2e"/>
    <g transform="translate(256,256)">
        <!-- Rock -->
        <path transform="translate(-120,-20) scale(0.4)" fill="#4a90e2" d="M464 128c-17.67 0-32 14.31-32 32v178.8l-120-76.8V128c0-17.69-14.33-32-32-32s-32 14.31-32 32v112l-120-76.8V48c0-17.69-14.33-32-32-32S64 30.31 64 48v178.8L32 208c-17.67 0-32 14.31-32 32v128c0 17.69 14.33 32 32 32h432c17.67 0 32-14.31 32-32V160C496 142.3 481.7 128 464 128z"/>
        
        <!-- Paper -->
        <path transform="translate(20,-20) scale(0.4)" fill="#ff6b6b" d="M372 128c-17.67 0-32 14.31-32 32v128c0 17.69-14.33 32-32 32s-32-14.31-32-32V32c0-17.69-14.33-32-32-32s-32 14.31-32 32v256c0 17.69-14.33 32-32 32s-32-14.31-32-32V64c0-17.69-14.33-32-32-32S96 46.31 96 64v336c0 44.13 35.89 80 80 80h192c44.11 0 80-35.87 80-80V160C448 142.3 433.7 128 416 128H372z"/>
        
        <!-- Scissors -->
        <path transform="translate(-50,100) scale(0.4)" fill="#4cd137" d="M256 192l-39.5-39.5c4.9-12.6 7.5-26.2 7.5-40.5C224 50.1 173.9 0 112 0S0 50.1 0 112s50.1 112 112 112c14.3 0 27.9-2.7 40.5-7.5L192 256l-39.5 39.5c-12.6-4.9-26.2-7.5-40.5-7.5C50.1 288 0 338.1 0 400s50.1 112 112 112s112-50.1 112-112c0-14.3-2.7-27.9-7.5-40.5L256 320l39.5 39.5c-4.9 12.6-7.5 26.2-7.5 40.5c0 61.9 50.1 112 112 112s112-50.1 112-112s-50.1-112-112-112c-14.3 0-27.9 2.7-40.5 7.5L320 256l39.5-39.5c12.6 4.9 26.2 7.5 40.5 7.5c61.9 0 112-50.1 112-112S461.9 0 400 0s-112 50.1-112 112c0 14.3 2.7 27.9 7.5 40.5L256 192z"/>
    </g>
</svg> 